Coordinates
version=1
nRows=30
nColumns=23
inDegrees=yes

Units are S.I. units (second, meters, Newtons, ...)
Angles are in degrees.

endheader
time	pelvis_tilt	pelvis_list	pelvis_rotation	pelvis_tx	pelvis_ty	pelvis_tz	hip_flexion_r	hip_adduction_r	hip_rotation_r	knee_angle_r	knee_angle_r_beta	ankle_angle_r	subtalar_angle_r	mtp_angle_r	hip_flexion_l	hip_adduction_l	hip_rotation_l	knee_angle_l	knee_angle_l_beta	ankle_angle_l	subtalar_angle_l	mtp_angle_l
    120.99555600	    -18.48064493	      3.86533132	      1.27122197	      0.04641014	      1.21892417	      0.25863734	     52.94405111	     -8.28374763	     -5.34564724	     39.46922293	      0.68886789	     -8.95927774	      0.00000000	      0.00000000	     85.85839741	     -3.77084808	      0.45490730	    119.83223616	      2.09146707	     23.62372919	      0.00000000	      0.00000000
    121.00444400	    -18.28179700	      4.09520113	      1.23168736	      0.04652035	      1.21921143	      0.25856032	     51.99888301	     -8.31365666	     -4.84417837	     39.45148363	      0.68855828	     -9.05336558	      0.00000000	      0.00000000	     86.95192269	     -3.64007340	      0.26716776	    119.97987914	      2.09404393	     23.42221662	      0.00000000	      0.00000000
    121.01333300	    -18.44315627	      4.25600407	      0.82276916	      0.04663027	      1.21898497	      0.25910797	     51.58731142	     -7.88181211	     -3.82025175	     39.50962781	      0.68957309	     -9.73636636	      0.00000000	      0.00000000	     88.34096197	     -3.96809157	      0.11260531	    119.97029327	      2.09387662	     23.38994965	      0.00000000	      0.00000000
    121.02222200	    -18.23151125	      4.31890569	      0.76402694	      0.04677262	      1.21950268	      0.25897868	     50.76705286	     -7.78108243	     -3.34057408	     39.82095958	      0.69500686	     -9.78747900	      0.00000000	      0.00000000	     89.26246852	     -3.85382318	      0.07574683	    119.71629478	      2.08944351	     23.20230463	      0.00000000	      0.00000000
    121.03111100	    -18.25476390	      4.49866393	      0.35887347	      0.04669729	      1.21920526	      0.25953428	     50.52873932	     -7.41641863	     -2.28765981	     40.63460987	      0.70920773	     -9.58677619	      0.00000000	      0.00000000	     90.37474140	     -4.15863101	     -0.09298940	    119.38409994	      2.08364562	     22.74018914	      0.00000000	      0.00000000
    121.04000000	    -18.05177495	      4.40265273	      0.28709771	      0.04682656	      1.21989983	      0.25937984	     49.87146150	     -7.20864872	     -1.93828436	     41.26894734	      0.72027901	     -9.62679273	      0.00000000	      0.00000000	     91.09795494	     -4.06206659	     -0.00053348	    118.73724070	      2.07235579	     22.60679657	      0.00000000	      0.00000000
    121.04888900	    -18.19053777	      4.67782423	     -0.03792801	      0.04655015	      1.21913300	      0.25986493	     50.11697378	     -7.00881721	     -0.86572584	     42.89187897	      0.74860451	     -8.55974944	      0.00000000	      0.00000000	     92.15121828	     -4.25986160	     -0.26520888	    118.06227569	      2.06057543	     21.67753272	      0.00000000	      0.00000000
    121.05777800	    -17.99123650	      4.56896574	     -0.16963147	      0.04636754	      1.21938478	      0.25983959	     49.83399543	     -6.76312054	     -0.48601048	     44.23673627	      0.77207670	     -8.30807373	      0.00000000	      0.00000000	     92.72112745	     -4.22079886	     -0.13976438	    117.17835579	      2.04514812	     21.22478668	      0.00000000	      0.00000000
    121.06666700	    -18.05668901	      4.67209892	     -0.33384487	      0.04611284	      1.21917024	      0.26012526	     50.05164616	     -6.59485318	      0.19291658	     46.01131832	      0.80304900	     -7.18037337	      0.00000000	      0.00000000	     93.39867938	     -4.26484651	     -0.28310027	    116.06599078	      2.02573369	     20.31789792	      0.00000000	      0.00000000
    121.07555600	    -18.01020595	      4.63755334	     -0.43548706	      0.04578605	      1.21916065	      0.26024663	     50.20122613	     -6.41607198	      0.60977036	     47.86646682	      0.83542745	     -6.38500863	      0.00000000	      0.00000000	     93.83785574	     -4.22857205	     -0.28181940	    114.81969600	      2.00398174	     19.54819726	      0.00000000	      0.00000000
    121.08444400	    -17.97016929	      4.59151339	     -0.50907697	      0.04537534	      1.21914137	      0.26038236	     50.45817965	     -6.25926105	      0.95648677	     49.88311333	      0.87062457	     -5.55944885	      0.00000000	      0.00000000	     94.13464592	     -4.17347633	     -0.28716346	    113.41157835	      1.97940545	     18.73272246	      0.00000000	      0.00000000
    121.09333300	    -17.95695232	      4.56534065	     -0.54429353	      0.04491977	      1.21910565	      0.26061027	     50.84006653	     -6.14224951	      1.25755005	     52.06143871	      0.90864352	     -4.65779437	      0.00000000	      0.00000000	     94.29151036	     -4.11411638	     -0.34749490	    111.83519774	      1.95189242	     17.86096683	      0.00000000	      0.00000000
    121.10222200	    -17.92873730	      4.47782242	     -0.57283693	      0.04443852	      1.21909497	      0.26067690	     51.27087756	     -6.00992040	      1.50677076	     54.31298314	      0.94794038	     -3.85245585	      0.00000000	      0.00000000	     94.27667812	     -4.01826436	     -0.33275839	    110.14977976	      1.92247633	     17.08085495	      0.00000000	      0.00000000
    121.11111100	    -17.88622132	      4.42104916	     -0.55731323	      0.04392186	      1.21915386	      0.26085184	     51.76673901	     -5.93257090	      1.70253617	     56.66540908	      0.98899796	     -3.08540279	      0.00000000	      0.00000000	     94.06499069	     -3.92070175	     -0.39557159	    108.29705337	      1.89014015	     16.25403344	      0.00000000	      0.00000000
    121.12000000	    -17.87570287	      4.35558436	     -0.55674136	      0.04343749	      1.21912387	      0.26109623	     52.37078433	     -5.83332569	      1.89657616	     59.12234132	      1.03187952	     -2.20867758	      0.00000000	      0.00000000	     93.72381579	     -3.86370590	     -0.46505329	    106.33875593	      1.85596141	     15.48772322	      0.00000000	      0.00000000
    121.12888900	    -17.74265748	      3.92561806	     -0.57748784	      0.04298890	      1.21911552	      0.26111508	     52.82785314	     -5.49939085	      1.73690225	     61.50498858	      1.07346456	     -2.08496116	      0.00000000	      0.00000000	     93.20550892	     -3.83467458	     -0.13470693	    104.42803811	      1.82261310	     15.14541255	      0.00000000	      0.00000000
    121.13777800	    -17.77214356	      4.25561988	     -0.49962211	      0.04258024	      1.21932806	      0.26164488	     53.64839686	     -5.72078322	      2.21916489	     64.16562862	      1.11990149	     -0.70276012	      0.00000000	      0.00000000	     92.42248580	     -3.73926019	     -0.70893691	    102.02671326	      1.78070207	     14.02950393	      0.00000000	      0.00000000
    121.14666700	    -17.71042033	      4.19489916	     -0.48671865	      0.04225938	      1.21944134	      0.26196572	     54.35555039	     -5.65133512	      2.35985440	     66.76444357	      1.16525936	      0.12399462	      0.00000000	      0.00000000	     91.52148577	     -3.73065501	     -0.86642223	     99.72102563	      1.74046023	     13.39073834	      0.00000000	      0.00000000
    121.15555600	    -17.62071971	      4.14250242	     -0.48453443	      0.04201920	      1.21961013	      0.26231215	     55.08142497	     -5.58101739	      2.50976704	     69.39207796	      1.21112024	      0.91036291	      0.00000000	      0.00000000	     90.43370203	     -3.74310730	     -1.05394253	     97.30896463	      1.69836182	     12.78088273	      0.00000000	      0.00000000
    121.16444400	    -17.51917433	      4.08531591	     -0.52118275	      0.04187957	      1.21977507	      0.26275635	     55.84592985	     -5.46947498	      2.67981588	     72.07053133	      1.25786807	      1.83515707	      0.00000000	      0.00000000	     89.18080130	     -3.82968124	     -1.27954602	     94.80519928	      1.65466288	     12.20634230	      0.00000000	      0.00000000
    121.17333300	    -17.38382010	      4.00636245	     -0.57707730	      0.04182061	      1.21997553	      0.26314192	     56.62396761	     -5.33909867	      2.82615754	     74.76130442	      1.30483092	      2.67901172	      0.00000000	      0.00000000	     87.76685721	     -3.93844005	     -1.50850368	     92.22004957	      1.60954350	     11.67476048	      0.00000000	      0.00000000
    121.18222200	    -17.22812417	      3.93397998	     -0.67849472	      0.04186074	      1.22019656	      0.26356099	     57.43236338	     -5.18716228	      2.98909229	     77.47864053	      1.35225738	      3.58291768	      0.00000000	      0.00000000	     86.19184636	     -4.10823858	     -1.79244960	     89.54675087	      1.56288564	     11.15840610	      0.00000000	      0.00000000
    121.19111100	    -17.05073952	      3.71271210	     -0.82415252	      0.04196005	      1.22019096	      0.26384135	     58.28083982	     -4.92098335	      3.02850705	     80.24214074	      1.40048955	      4.33236255	      0.00000000	      0.00000000	     84.55766394	     -4.35636803	     -1.96838978	     86.92928556	      1.51720225	     10.74231697	      0.00000000	      0.00000000
    121.20000000	    -16.86386158	      3.68889836	     -1.01576411	      0.04224957	      1.22054635	      0.26431993	     59.15264008	     -4.73354000	      3.26716111	     82.95491105	      1.44783633	      5.37571731	      0.00000000	      0.00000000	     82.66298863	     -4.63289620	     -2.42883737	     84.06839938	      1.46727037	     10.25455653	      0.00000000	      0.00000000
    121.20888900	    -16.68850992	      3.53685424	     -1.27170703	      0.04260913	      1.22077676	      0.26473224	     60.07515403	     -4.41884253	      3.41236601	     85.62656297	      1.49446545	      6.33252050	      0.00000000	      0.00000000	     80.72348236	     -5.00997604	     -2.82300081	     81.22206014	      1.41759237	      9.87496337	      0.00000000	      0.00000000
    121.21777800	    -16.50324519	      3.33671859	     -1.56806914	      0.04303040	      1.22095503	      0.26506352	     61.03933906	     -4.06279491	      3.50921535	     88.26532353	      1.54052051	      7.21001478	      0.00000000	      0.00000000	     78.70133974	     -5.43653775	     -3.23337021	     78.37372276	      1.36787951	      9.56828812	      0.00000000	      0.00000000
    121.22666700	    -16.38945231	      3.02069040	     -1.88251575	      0.04355400	      1.22107595	      0.26526657	     62.09473331	     -3.64078536	      3.48221522	     90.78113259	      1.58442966	      7.87922717	      0.00000000	      0.00000000	     76.68470147	     -5.91748380	     -3.59509772	     75.50862555	      1.31787413	      9.37186934	      0.00000000	      0.00000000
    121.23555600	    -16.18716253	      2.81759977	     -2.25064288	      0.04394585	      1.22099161	      0.26545594	     63.19921334	     -3.26502758	      3.57998686	     93.38366886	      1.62985249	      8.62271510	      0.00000000	      0.00000000	     74.54043886	     -6.39427656	     -4.11135779	     72.71595584	      1.26913285	      9.14638002	      0.00000000	      0.00000000
    121.24444400	    -16.07154490	      2.52046461	     -2.62363854	      0.04441737	      1.22093139	      0.26553636	     64.39672887	     -2.84498014	      3.56160841	     95.81031033	      1.67220537	      9.20591109	      0.00000000	      0.00000000	     72.42688945	     -6.89659967	     -4.58248344	     69.89695313	      1.21993197	      8.99636708	      0.00000000	      0.00000000
    121.25333300	    -16.01076098	      2.18945228	     -2.96862169	      0.04489086	      1.22079599	      0.26549196	     65.69788084	     -2.44681671	      3.49322621	     98.14146184	      1.71289164	      9.67797745	      0.00000000	      0.00000000	     70.33905243	     -7.36839696	     -5.04408941	     67.09714432	      1.17106609	      8.85140496	      0.00000000	      0.00000000
